<svg xmlns="http://www.w3.org/2000/svg" viewBox="0 0 32 32" width="32" height="32">
  <defs>
    <linearGradient id="g" x1="0" y1="0" x2="32" y2="32" gradientUnits="userSpaceOnUse">
      <stop offset="0" stop-color="#a81bb3"/>
      <stop offset="1" stop-color="#e065ea"/>
    </linearGradient>
    <filter id="glow" x="-20%" y="-20%" width="140%" height="140%">
      <feGaussianBlur stdDeviation="1.1" result="b"/>
      <feMerge><feMergeNode in="b"/><feMergeNode in="SourceGraphic"/></feMerge>
    </filter>
  </defs>
  <rect width="32" height="32" rx="8" fill="url(#g)"/>
  <g filter="url(#glow)" fill="#ffffff">
    <path d="M16 5c1 6.6 3.4 9 10 10-6.6 1-9 3.4-10 10-1-6.6-3.4-9-10-10 6.6-1 9-3.4 10-10z"/>
    <path d="M25 4c.4 2.1 1 2.7 3 3-2 .3-2.6.9-3 3-.4-2.1-1-2.7-3-3 2-.3 2.6-.9 3-3z" opacity=".9"/>
  </g>
</svg>